<?xml version="1.0" encoding="iso-8859-1"?>
<!-- Generator: Adobe Illustrator 19.0.0, SVG Export Plug-In . SVG Version: 6.00 Build 0)  -->
<svg version="1.1" id="Capa_1" xmlns="http://www.w3.org/2000/svg" xmlns:xlink="http://www.w3.org/1999/xlink" x="0px" y="0px"
	 viewBox="0 0 512 512" style="enable-background:new 0 0 512 512;" xml:space="preserve">
<g>
	<g>
		<path d="M502.154,68.923H9.846C4.408,68.923,0,73.332,0,78.769v354.462c0,5.437,4.408,9.846,9.846,9.846h492.308
			c5.438,0,9.846-4.409,9.846-9.846V78.769C512,73.332,507.592,68.923,502.154,68.923z M492.308,384h-39.385
			c-5.438,0-9.846,4.409-9.846,9.846c0,5.437,4.408,9.846,9.846,9.846h39.385v19.692H19.692V187.077h39.385
			c5.438,0,9.846-4.409,9.846-9.846s-4.408-9.846-9.846-9.846H19.692v-19.692h472.615V384z M492.308,128H19.692V88.615h472.615V128z
			"/>
	</g>
</g>
<g>
	<g>
		<path d="M374.154,98.462h-19.692c-5.438,0-9.846,4.409-9.846,9.846c0,5.437,4.408,9.846,9.846,9.846h19.692
			c5.438,0,9.846-4.409,9.846-9.846C384,102.871,379.592,98.462,374.154,98.462z"/>
	</g>
</g>
<g>
	<g>
		<path d="M423.385,98.462h-19.692c-5.438,0-9.846,4.409-9.846,9.846c0,5.437,4.408,9.846,9.846,9.846h19.692
			c5.438,0,9.846-4.409,9.846-9.846C433.231,102.871,428.823,98.462,423.385,98.462z"/>
	</g>
</g>
<g>
	<g>
		<path d="M472.615,98.462h-19.692c-5.438,0-9.846,4.409-9.846,9.846c0,5.437,4.408,9.846,9.846,9.846h19.692
			c5.438,0,9.846-4.409,9.846-9.846C482.462,102.871,478.053,98.462,472.615,98.462z"/>
	</g>
</g>
<g>
	<g>
		<path d="M98.265,175.311c-0.118-0.63-0.315-1.25-0.561-1.841c-0.246-0.601-0.551-1.171-0.906-1.702
			c-0.354-0.543-0.768-1.045-1.221-1.498c-2.284-2.294-5.691-3.338-8.881-2.698c-0.63,0.128-1.25,0.325-1.851,0.571
			c-0.591,0.246-1.162,0.552-1.694,0.906c-0.542,0.354-1.044,0.768-1.497,1.221c-0.453,0.453-0.866,0.955-1.221,1.498
			c-0.354,0.532-0.66,1.102-0.906,1.702c-0.246,0.592-0.433,1.211-0.561,1.841c-0.128,0.63-0.197,1.28-0.197,1.92
			c0,0.639,0.069,1.29,0.197,1.92c0.128,0.63,0.315,1.25,0.561,1.84c0.246,0.601,0.551,1.172,0.906,1.703
			c0.354,0.542,0.768,1.044,1.221,1.497c0.453,0.454,0.955,0.867,1.497,1.221c0.532,0.354,1.103,0.66,1.694,0.906
			c0.601,0.246,1.221,0.443,1.851,0.561c0.63,0.128,1.28,0.197,1.92,0.197c0.64,0,1.29-0.069,1.92-0.197
			c0.63-0.118,1.25-0.315,1.841-0.561c0.601-0.246,1.172-0.551,1.703-0.906c0.542-0.353,1.044-0.767,1.497-1.221
			c0.453-0.453,0.866-0.955,1.221-1.497c0.354-0.532,0.66-1.103,0.906-1.703c0.246-0.591,0.443-1.21,0.561-1.84
			c0.128-0.631,0.197-1.281,0.197-1.92C98.461,176.591,98.393,175.94,98.265,175.311z"/>
	</g>
</g>
<g>
	<g>
		<path d="M433.034,391.925c-0.118-0.629-0.315-1.249-0.561-1.84c-0.246-0.601-0.551-1.171-0.906-1.702
			c-0.354-0.543-0.768-1.045-1.221-1.498c-0.453-0.453-0.955-0.866-1.497-1.221c-0.532-0.353-1.103-0.66-1.694-0.906
			c-0.601-0.246-1.221-0.443-1.851-0.56c-1.27-0.257-2.57-0.257-3.84,0c-0.63,0.117-1.25,0.314-1.851,0.56
			c-0.591,0.246-1.162,0.552-1.694,0.906c-0.542,0.354-1.044,0.768-1.497,1.221c-0.453,0.453-0.866,0.955-1.221,1.498
			c-0.354,0.532-0.66,1.102-0.906,1.702c-0.246,0.592-0.433,1.211-0.561,1.841s-0.197,1.28-0.197,1.92
			c0,0.639,0.069,1.29,0.197,1.92s0.315,1.25,0.561,1.84c0.246,0.601,0.551,1.172,0.906,1.703c0.354,0.542,0.768,1.044,1.221,1.497
			c0.453,0.454,0.955,0.867,1.497,1.221c0.532,0.354,1.103,0.66,1.703,0.906c0.591,0.246,1.211,0.443,1.841,0.561
			c0.63,0.128,1.28,0.197,1.92,0.197c2.59,0,5.13-1.054,6.961-2.886c0.453-0.453,0.866-0.955,1.221-1.497
			c0.354-0.532,0.66-1.103,0.906-1.703c0.246-0.591,0.443-1.21,0.561-1.84c0.128-0.631,0.197-1.281,0.197-1.92
			C433.231,393.205,433.162,392.554,433.034,391.925z"/>
	</g>
</g>
<g>
	<g>
		<path d="M256,216.615c-38.004,0-68.923,30.919-68.923,68.923c0,38.004,30.919,68.923,68.923,68.923s68.923-30.919,68.923-68.923
			C324.923,247.534,294.004,216.615,256,216.615z M256,334.769c-27.146,0-49.231-22.085-49.231-49.231s22.085-49.231,49.231-49.231
			s49.231,22.085,49.231,49.231S283.146,334.769,256,334.769z"/>
	</g>
</g>
<g>
	<g>
		<path d="M348.223,249.756c-1.141-0.343-1.639-1.185-1.835-1.658c-0.195-0.472-0.439-1.42,0.125-2.468
			c4.762-8.844,3.189-19.559-3.914-26.662l-20.028-20.028c-7.103-7.102-17.818-8.676-26.663-3.914
			c-1.047,0.564-1.996,0.32-2.468,0.125c-0.472-0.196-1.314-0.694-1.657-1.834c-2.886-9.621-11.575-16.085-21.62-16.085h-28.323
			c-10.046,0-18.735,6.465-21.621,16.087c-0.342,1.14-1.185,1.638-1.657,1.833s-1.42,0.438-2.468-0.125
			c-8.846-4.763-19.56-3.19-26.663,3.914l-20.027,20.028c-7.103,7.103-8.675,17.819-3.914,26.663
			c0.564,1.047,0.32,1.996,0.124,2.468c-0.195,0.472-0.693,1.314-1.833,1.657c-9.622,2.887-16.086,11.575-16.086,21.62V299.7
			c0,10.045,6.464,18.733,16.087,21.621c1.14,0.343,1.638,1.185,1.833,1.657c0.196,0.472,0.439,1.421-0.125,2.469
			c-4.762,8.844-3.189,19.559,3.914,26.662l20.028,20.028c7.104,7.102,17.819,8.674,26.663,3.914
			c1.049-0.563,1.996-0.32,2.467-0.125s1.315,0.694,1.658,1.834c2.886,9.621,11.575,16.085,21.62,16.085h28.323
			c10.045,0,18.734-6.464,21.621-16.087c0.342-1.139,1.184-1.637,1.656-1.832c0.472-0.197,1.421-0.439,2.468,0.124
			c8.844,4.761,19.558,3.188,26.663-3.914l20.028-20.028c7.102-7.103,8.675-17.818,3.914-26.662
			c-0.564-1.048-0.321-1.997-0.125-2.469c0.195-0.472,0.694-1.314,1.833-1.657c9.622-2.888,16.086-11.576,16.086-21.621v-28.323
			C364.308,261.332,357.844,252.643,348.223,249.756z M344.619,299.7h-0.004c0,1.282-0.825,2.392-2.053,2.76
			c-6.524,1.957-11.761,6.689-14.368,12.982c-2.606,6.294-2.25,13.344,0.98,19.34c0.608,1.129,0.408,2.498-0.499,3.404
			l-20.027,20.028c-0.906,0.907-2.273,1.108-3.404,0.5c-5.998-3.229-13.046-3.587-19.34-0.979
			c-6.293,2.606-11.025,7.843-12.982,14.367c-0.368,1.228-1.477,2.053-2.759,2.053H241.84c-1.282,0-2.391-0.825-2.76-2.054
			c-1.958-6.524-6.69-11.761-12.984-14.368c-2.786-1.155-5.721-1.728-8.646-1.728c-3.682,0-7.351,0.909-10.693,2.708
			c-1.128,0.607-2.496,0.408-3.403-0.5l-20.027-20.028c-0.907-0.907-1.108-2.274-0.5-3.402c3.23-5.998,3.587-13.047,0.98-19.341
			c-2.606-6.294-7.843-11.026-14.367-12.983c-1.228-0.368-2.053-1.478-2.053-2.76v-28.323c0-1.282,0.825-2.392,2.053-2.76
			c6.524-1.956,11.761-6.69,14.367-12.983c2.607-6.294,2.25-13.343-0.979-19.34c-0.607-1.128-0.408-2.496,0.499-3.403l20.027-20.028
			c0.907-0.907,2.273-1.107,3.404-0.5c5.996,3.231,13.046,3.589,19.339,0.98c6.294-2.606,11.026-7.843,12.984-14.369
			c0.368-1.228,1.477-2.053,2.76-2.053h28.323c1.282,0,2.392,0.825,2.76,2.053c1.957,6.524,6.69,11.76,12.982,14.368
			c6.293,2.608,13.343,2.251,19.341-0.979c1.129-0.607,2.496-0.407,3.403,0.5l20.028,20.028c0.907,0.907,1.108,2.274,0.5,3.402
			c-3.229,5.998-3.586,13.046-0.98,19.34c2.606,6.294,7.843,11.025,14.367,12.984c1.229,0.368,2.053,1.478,2.053,2.76V299.7z"/>
	</g>
</g>
<g>
</g>
<g>
</g>
<g>
</g>
<g>
</g>
<g>
</g>
<g>
</g>
<g>
</g>
<g>
</g>
<g>
</g>
<g>
</g>
<g>
</g>
<g>
</g>
<g>
</g>
<g>
</g>
<g>
</g>
</svg>
